<?xml version="1.0" encoding="UTF-8"?>
<svg width="579.4" height="769.34" version="1.1" viewBox="0 0 370.82 492.38" xml:space="preserve" xmlns="http://www.w3.org/2000/svg" xmlns:xlink="http://www.w3.org/1999/xlink">
<path d="m338.96 368.95h-309.33c-2.944 0-5.3333-2.0884-5.3333-4.6617v-284.37l85.333-74.588h229.33c2.944 0 5.3333 2.0885 5.3333 4.6617v354.29c0 2.5733-2.3893 4.6617-5.3333 4.6617z" fill="#e1f5fe" stroke-width="9.9724"/><g fill="#0277bd"><path d="m109.62 0c-0.0171 0-0.0341 2e-3 -0.0513 2e-3h-2.1625l-1.555 1.365c-6.4e-4 5.6e-4 -2e-3 5.3e-4 -3e-3 1e-3l-85.332 74.848c-0.02283 0.02-0.04015 0.0433-0.0625 0.0636l-1.495 1.3113v287.29c0 5.1551 4.7889 9.3555 10.666 9.3555h309.33c5.8773 0 10.666-4.2004 10.666-9.3555v-355.52c0-5.1551-4.7889-9.3556-10.666-9.3556h-229.29c-0.0171-1.4e-4 -0.0341-2e-3 -0.0512-2e-3zm2.2138 9.3577h227.12v355.53h-309.33v-280.68h74.666c5.8773 0 10.667-4.2004 10.667-9.3556v-42.102c0-2.5822-2.3897-4.6783-5.3337-4.6783-2.944 0-5.3337 2.0961-5.3337 4.6783v42.102h-67.125z" stroke-width="9.9898"/><g stroke="#0277bd"><path d="m65.146 197.94h236.48" stroke-width="10.209"/><path d="m65.69 257.93h237.01" stroke-width="12.09"/><path d="m66.813 134.76h234.29" stroke-width="10.24"/></g></g><path d="m263.77 180.67a50.922 50.922 0 0 0-50.922 50.922 50.922 50.922 0 0 0 21.824 41.694v81.975l29.099-29.099 29.099 29.099v-81.975a50.922 50.922 0 0 0 21.824-41.694 50.922 50.922 0 0 0-50.922-50.922z" fill="#d4aa00" stroke-width="1.8187"/><path d="m8.5435 449.53h353.73" fill="none" stroke="#000" stroke-linecap="round" stroke-linejoin="bevel" stroke-width="17.087"/><circle cx="185.77" cy="449.49" r="42.886"/></svg>
