<?xml version="1.0" encoding="UTF-8" standalone="no"?>
<!-- Created with Inkscape (http://www.inkscape.org/) -->

<svg
   xmlns:dc="http://purl.org/dc/elements/1.1/"
   xmlns:cc="http://creativecommons.org/ns#"
   xmlns:rdf="http://www.w3.org/1999/02/22-rdf-syntax-ns#"
   xmlns:svg="http://www.w3.org/2000/svg"
   xmlns="http://www.w3.org/2000/svg"
   xmlns:sodipodi="http://sodipodi.sourceforge.net/DTD/sodipodi-0.dtd"
   xmlns:inkscape="http://www.inkscape.org/namespaces/inkscape"
   width="26mm"
   height="37mm"
   viewBox="0 0 92.125983 131.10236"
   id="svg6085"
   version="1.1"
   inkscape:version="0.91 r13725"
   sodipodi:docname="document_search.svg">
  <defs
     id="defs6087" />
  <sodipodi:namedview
     id="base"
     pagecolor="#ffffff"
     bordercolor="#666666"
     borderopacity="1.0"
     inkscape:pageopacity="0.0"
     inkscape:pageshadow="2"
     inkscape:zoom="1.979899"
     inkscape:cx="-147.65846"
     inkscape:cy="75.363686"
     inkscape:document-units="px"
     inkscape:current-layer="layer1"
     showgrid="false"
     inkscape:window-width="1920"
     inkscape:window-height="1017"
     inkscape:window-x="-8"
     inkscape:window-y="-8"
     inkscape:window-maximized="1"
     showguides="true"
     inkscape:guide-bbox="true" />
  <metadata
     id="metadata6090">
    <rdf:RDF>
      <cc:Work
         rdf:about="">
        <dc:format>image/svg+xml</dc:format>
        <dc:type
           rdf:resource="http://purl.org/dc/dcmitype/StillImage" />
        <dc:title></dc:title>
      </cc:Work>
    </rdf:RDF>
  </metadata>
  <g
     inkscape:label="Laag 1"
     inkscape:groupmode="layer"
     id="layer1"
     transform="translate(0,-921.25985)">
    <path
       style="opacity:1;fill:#6c5353;fill-opacity:0.94509804;fill-rule:nonzero;stroke:none;stroke-width:1.58158517;stroke-miterlimit:4;stroke-dasharray:1.58158517, 3.16317034;stroke-dashoffset:0;stroke-opacity:1"
       d=""
       id="path6839"
       inkscape:connector-curvature="0"
       transform="translate(0,960.23623)" />
    <g
       id="g9403"
       transform="matrix(0.23508424,0,0,0.23508424,196.05133,842.57069)">
      <rect
         ry="4.0342398"
         y="413.24686"
         x="-648.05627"
         height="17.142857"
         width="143.57143"
         id="rect6848-2"
         style="opacity:1;fill:#6c5353;fill-opacity:0.94509804;fill-rule:nonzero;stroke:none;stroke-width:1.58158517;stroke-miterlimit:4;stroke-dasharray:1.58158517, 3.16317034;stroke-dashoffset:0;stroke-opacity:1" />
      <rect
         ry="4.0342398"
         y="440.38968"
         x="-605.19916"
         height="17.142857"
         width="101.42857"
         id="rect6848-2-4"
         style="opacity:1;fill:#6c5353;fill-opacity:0.94509804;fill-rule:nonzero;stroke:none;stroke-width:1.58158517;stroke-miterlimit:4;stroke-dasharray:1.58158517, 3.16317034;stroke-dashoffset:0;stroke-opacity:1" />
      <rect
         ry="4.0342398"
         y="468.96109"
         x="-673.05627"
         height="17.142857"
         width="169.28571"
         id="rect6848-2-1"
         style="opacity:1;fill:#6c5353;fill-opacity:0.94509804;fill-rule:nonzero;stroke:none;stroke-width:1.58158517;stroke-miterlimit:4;stroke-dasharray:1.58158517, 3.16317034;stroke-dashoffset:0;stroke-opacity:1" />
      <rect
         transform="scale(-1,-1)"
         ry="4.0342398"
         y="-569.13959"
         x="530.02057"
         height="17.142857"
         width="143.57143"
         id="rect6848-2-9"
         style="opacity:1;fill:#6c5353;fill-opacity:0.94509804;fill-rule:nonzero;stroke:none;stroke-width:1.58158517;stroke-miterlimit:4;stroke-dasharray:1.58158517, 3.16317034;stroke-dashoffset:0;stroke-opacity:1" />
      <rect
         transform="scale(-1,-1)"
         ry="4.0342398"
         y="-541.99677"
         x="572.87769"
         height="17.142857"
         width="101.42857"
         id="rect6848-2-4-5"
         style="opacity:1;fill:#6c5353;fill-opacity:0.94509804;fill-rule:nonzero;stroke:none;stroke-width:1.58158517;stroke-miterlimit:4;stroke-dasharray:1.58158517, 3.16317034;stroke-dashoffset:0;stroke-opacity:1" />
      <rect
         transform="scale(-1,-1)"
         ry="4.0342398"
         y="-513.42529"
         x="505.0206"
         height="17.142857"
         width="169.28571"
         id="rect6848-2-1-3"
         style="opacity:1;fill:#6c5353;fill-opacity:0.94509804;fill-rule:nonzero;stroke:none;stroke-width:1.58158517;stroke-miterlimit:4;stroke-dasharray:1.58158517, 3.16317034;stroke-dashoffset:0;stroke-opacity:1" />
      <path
         inkscape:connector-curvature="0"
         id="path9401"
         d="m -714.65431,651.85798 c -0.38114,-20.07191 0.13252,-313.26712 0.55001,-313.94263 0.38169,-0.61758 36.7778,-0.97637 99.04604,-0.97637 l 98.44263,0 25.49399,17.80477 c 14.02169,9.79262 26.06379,18.0241 26.76022,18.29218 1.00814,0.38806 1.21404,28.93123 1.01015,140.03157 l -0.25608,139.54415 -125.51145,0.25649 c -100.07041,0.20448 -125.51633,-2.7e-4 -125.53551,-1.01016 z m 235.37643,-141.4253 -0.0132,-126.52161 -22.09015,-15.40482 -22.09013,-15.40483 -87.49825,0 -87.49825,0 0,141.92643 0,141.92643 109.60156,0 109.60155,0 -0.0131,-126.5216 -3e-5,0 z"
         style="opacity:1;fill:#6c5353;fill-opacity:0.94509804;fill-rule:nonzero;stroke:none;stroke-width:1.58158517;stroke-miterlimit:4;stroke-dasharray:1.58158517, 3.16317034;stroke-dashoffset:0;stroke-opacity:1" />
    </g>
    <path
       style="opacity:1;fill:#6c5353;fill-opacity:0.94509804;fill-rule:nonzero;stroke:none;stroke-width:1.58158517;stroke-miterlimit:4;stroke-dasharray:1.58158517, 3.16317034;stroke-dashoffset:0;stroke-opacity:1"
       d="m 63.264238,1032.6778 -15.113734,-14.9959 -2.606239,1.1423 c -14.930046,6.5437 -32.498044,-2.0921 -36.567674,-17.9755 -0.8519155,-3.32484 -0.9413194,-8.68292 -0.2042738,-12.24146 0.2870936,-1.38604 1.2658648,-4.04001 2.1750648,-5.89763 8.009855,-16.36552 29.966349,-19.98235 42.951488,-7.07548 5.26946,5.23779 7.684649,11.13866 7.684649,18.77547 0,5.0827 -0.632375,7.9284 -2.649983,11.9249 l -0.858314,1.7001 14.836492,14.7072 c 8.16008,8.0889 15.034195,15.2005 15.275827,15.8037 0.615441,1.5366 -0.313939,3.109 -3.778619,6.3936 -4.758247,4.5106 -3.512922,5.2328 -21.144684,-12.2613 z m -23.089059,-21.3907 c 7.068432,-2.0865 12.571097,-9.4741 12.571097,-16.8775 0,-5.43136 -3.231416,-11.4502 -7.831639,-14.58717 -8.686441,-5.92333 -21.098273,-2.64695 -25.934681,6.84597 -1.283077,2.5185 -1.399826,3.16416 -1.399826,7.7412 0,4.54385 0.119983,5.21982 1.332504,7.5074 4.276582,8.0679 12.859848,11.8504 21.262545,9.3701 z"
       id="path9451"
       inkscape:connector-curvature="0" />
  </g>
</svg>
