<?xml version="1.0" encoding="UTF-8" standalone="no"?>
<!-- Uploaded to: SVG Repo, www.svgrepo.com, Transformed by: SVG Repo Mixer Tools -->

<svg
   height="869.45679"
   width="600.00745"
   version="1.1"
   id="Layer_1"
   viewBox="0 0 384.00402 556.45126"
   xml:space="preserve"
   xmlns="http://www.w3.org/2000/svg"
   xmlns:svg="http://www.w3.org/2000/svg"><defs
   id="defs43">
	

		
	
			
			
			
			
			
		</defs>



















<path
   style="fill:#ffffff;stroke:none;stroke-width:4.24335"
   d="M 252.56349,61.097135 V 141.7208 h 80.62363 z"
   id="path1858" /><g
   id="g7021"
   transform="matrix(0.99999805,0,0,0.99999805,-60.093417,44.452247)"
   style="fill:#000000">
	<g
   id="g7019">
		<path
   d="M 427.93927,465.455 H 319.837 c -4.817,-13.51 -17.617,-23.273 -32.768,-23.273 h -23.273 v -4.48426 c 0,-6.423 -5.213,-11.636 -11.636,-11.636 -6.423,0 -11.636,5.213 -11.636,11.636 v 4.48426 h -23.273 c -15.151,0 -27.951,9.763 -32.768,23.273 H 77.370931 c -6.423,0 -11.636,5.213 -11.636,11.636 0,6.423 5.213,11.636 11.636,11.636 H 184.483 C 189.3,502.237 202.1,512 217.251,512 h 69.818 c 15.151,0 27.951,-9.763 32.768,-23.273 h 108.10227 c 6.423,0 11.636,-5.213 11.636,-11.636 0.001,-6.423 -5.212,-11.636 -11.636,-11.636 z M 287.069,488.727 h -69.818 c -6.412,0 -11.636,-5.225 -11.636,-11.636 0,-6.411 5.225,-11.636 11.636,-11.636 h 69.818 c 6.412,0 11.636,5.225 11.636,11.636 0,6.411 -5.224,11.636 -11.636,11.636 z"
   id="path7017" />
	</g>
</g><g
   id="document_x2C__file"
   transform="matrix(10.666646,0,0,10.666646,-63.995127,-21.330625)">

<path
   d="M 41,45.5 H 12 c -0.276,0 -0.5,-0.224 -0.5,-0.5 V 14.5 l 8,-8 H 41 c 0.276,0 0.5,0.224 0.5,0.5 v 38 c 0,0.276 -0.224,0.5 -0.5,0.5 z"
   fill="#e1f5fe"
   id="path10474" />

<path
   d="M 41,45 H 12 v -1.586 c 0,-0.276 0.224,-0.5 0.5,-0.5 0.276,0 0.5,0.224 0.5,0.5 V 44 H 40 V 8 h -1.586 c -0.276,0 -0.5,-0.224 -0.5,-0.5 0,-0.276 0.224,-0.5 0.5,-0.5 H 41 Z"
   fill="#ffffff"
   id="path10476" />

<path
   d="M 41,46 H 12 c -0.551,0 -1,-0.449 -1,-1 v -1.5 c 0,-0.276 0.224,-0.5 0.5,-0.5 0.276,0 0.5,0.224 0.5,0.5 V 45 H 41 V 7 H 38.5 C 38.223,7 38,6.776 38,6.5 38,6.224 38.223,6 38.5,6 H 41 c 0.551,0 1,0.449 1,1 v 38 c 0,0.551 -0.449,1 -1,1 z"
   fill="#0277bd"
   id="path10478" />

<path
   d="M 36,41.5 H 7 C 6.724,41.5 6.5,41.276 6.5,41 V 10.5 l 8,-8 H 36 c 0.276,0 0.5,0.224 0.5,0.5 v 38 c 0,0.276 -0.224,0.5 -0.5,0.5 z"
   fill="#e1f5fe"
   id="path10480" />

<path
   d="M 36,41 H 7 V 10.707 L 14.707,3 H 36 Z M 8,40 H 35 V 4 H 15.121 L 8,11.121 Z"
   fill="#ffffff"
   id="path10482" />

<path
   d="M 36,42 H 7 C 6.449,42 6,41.551 6,41 V 10.293 L 14.292,2 H 36 c 0.551,0 1,0.449 1,1 v 38 c 0,0.551 -0.449,1 -1,1 z m 0,-1 v 0.5 z M 7,10.707 V 41 H 36 V 3 H 14.707 Z"
   fill="#0277bd"
   id="path10484" />

<path
   d="M 14,10.5 H 6.5 l 8,-8 V 10 c 0,0.276 -0.224,0.5 -0.5,0.5 z"
   fill="#ffe57f"
   id="path10486" />

<path
   d="M 9.426,9.488 C 9.298,9.488 9.17,9.439 9.072,9.342 8.877,9.147 8.877,8.83 9.072,8.635 l 3.573,-3.573 c 0.195,-0.195 0.512,-0.195 0.707,0 0.195,0.195 0.195,0.512 0,0.707 L 9.779,9.342 C 9.682,9.439 9.554,9.488 9.426,9.488 Z"
   fill="#ffffff"
   id="path10488" />

<path
   d="M 14,11 H 6.5 C 6.298,11 6.115,10.878 6.038,10.691 5.96,10.504 6.003,10.289 6.146,10.146 l 8,-8 c 0.195,-0.195 0.512,-0.195 0.707,0 0.195,0.195 0.195,0.512 0,0.707 L 7.707,10 H 14 V 5.5 C 14,5.224 14.224,5 14.5,5 14.776,5 15,5.224 15,5.5 V 10 c 0,0.551 -0.449,1 -1,1 z"
   fill="#0277bd"
   id="path10490" />

<g
   id="g10504">

<path
   d="m 30.5,27 h -18 C 12.224,27 12,26.776 12,26.5 12,26.224 12.224,26 12.5,26 h 18 c 0.276,0 0.5,0.224 0.5,0.5 0,0.276 -0.224,0.5 -0.5,0.5 z"
   fill="#0277bd"
   id="path10492" />

<path
   d="m 30.5,24 h -18 C 12.224,24 12,23.776 12,23.5 12,23.224 12.224,23 12.5,23 h 18 c 0.276,0 0.5,0.224 0.5,0.5 0,0.276 -0.224,0.5 -0.5,0.5 z"
   fill="#0277bd"
   id="path10494" />

<path
   d="m 30.5,21 h -18 C 12.224,21 12,20.776 12,20.5 12,20.224 12.224,20 12.5,20 h 18 c 0.276,0 0.5,0.224 0.5,0.5 0,0.276 -0.224,0.5 -0.5,0.5 z"
   fill="#0277bd"
   id="path10496" />

<path
   d="m 25.5,30 h -13 C 12.224,30 12,29.776 12,29.5 12,29.224 12.224,29 12.5,29 h 13 c 0.276,0 0.5,0.224 0.5,0.5 0,0.276 -0.224,0.5 -0.5,0.5 z"
   fill="#0277bd"
   id="path10498" />

<path
   d="m 25.5,15 h -8 C 17.224,15 17,14.776 17,14.5 17,14.224 17.224,14 17.5,14 h 8 c 0.276,0 0.5,0.224 0.5,0.5 0,0.276 -0.224,0.5 -0.5,0.5 z"
   fill="#0277bd"
   id="path10500" />

<path
   d="m 30.5,18 h -18 C 12.224,18 12,17.776 12,17.5 12,17.224 12.224,17 12.5,17 h 18 c 0.276,0 0.5,0.224 0.5,0.5 0,0.276 -0.224,0.5 -0.5,0.5 z"
   fill="#0277bd"
   id="path10502" />

</g>

</g><g
   id="g11578"
   transform="matrix(1.4800301,0,0,1.4800301,718.06442,-332.14095)"><path
     style="fill:#3f51b5;stroke-width:1.2288"
     d="m -339.84564,445.34442 h 39.32152 v 58.98228 l -19.66076,-19.66076 -19.66076,19.66076 z"
     id="path11289" /><circle
     style="fill:#a8965d;stroke-width:1.2288"
     cx="-320.18488"
     cy="420.76846"
     r="34.406334"
     id="circle11291" /></g></svg>
