<?xml version="1.0" encoding="UTF-8" standalone="no"?>
<!-- Uploaded to: SVG Repo, www.svgrepo.com, Transformed by: SVG Repo Mixer Tools -->

<svg
   height="869.45679"
   width="600.00745"
   version="1.1"
   id="Layer_1"
   viewBox="0 0 384.00402 556.45126"
   xml:space="preserve"
   xmlns="http://www.w3.org/2000/svg"
   xmlns:svg="http://www.w3.org/2000/svg"><defs
   id="defs43">
	

		
	
			
			
			
			
			
		



































</defs>



















<path
   style="fill:#ffffff;stroke:none;stroke-width:4.24335"
   d="M 252.56349,61.097135 V 141.7208 h 80.62363 z"
   id="path1858" /><g
   id="g7021"
   transform="matrix(0.99999805,0,0,0.99999805,-60.093417,44.452247)"
   style="fill:#000000">
	<g
   id="g7019">
		<path
   d="M 427.93927,465.455 H 319.837 c -4.817,-13.51 -17.617,-23.273 -32.768,-23.273 h -23.273 v -4.48426 c 0,-6.423 -5.213,-11.636 -11.636,-11.636 -6.423,0 -11.636,5.213 -11.636,11.636 v 4.48426 h -23.273 c -15.151,0 -27.951,9.763 -32.768,23.273 H 77.370931 c -6.423,0 -11.636,5.213 -11.636,11.636 0,6.423 5.213,11.636 11.636,11.636 H 184.483 C 189.3,502.237 202.1,512 217.251,512 h 69.818 c 15.151,0 27.951,-9.763 32.768,-23.273 h 108.10227 c 6.423,0 11.636,-5.213 11.636,-11.636 0.001,-6.423 -5.212,-11.636 -11.636,-11.636 z M 287.069,488.727 h -69.818 c -6.412,0 -11.636,-5.225 -11.636,-11.636 0,-6.411 5.225,-11.636 11.636,-11.636 h 69.818 c 6.412,0 11.636,5.225 11.636,11.636 0,6.411 -5.224,11.636 -11.636,11.636 z"
   id="path7017" />
	</g>
</g><path
   d="M 373.33736,464.00177 H 64.004625 c -2.943994,0 -5.333323,-2.38933 -5.333323,-5.33332 V 133.33574 L 144.00447,48.002574 h 229.33289 c 2.94399,0 5.33332,2.389329 5.33332,5.333323 V 458.66845 c 0,2.94399 -2.38933,5.33332 -5.33332,5.33332 z"
   fill="#e1f5fe"
   id="path10474"
   style="stroke-width:10.6666" /><path
   d="M 373.33736,458.66845 H 64.004625 v -16.91731 c 0,-2.94399 2.389329,-5.33332 5.333323,-5.33332 2.943994,0 5.333323,2.38933 5.333323,5.33332 v 6.25066 H 362.67071 V 64.002543 h -16.9173 c -2.94399,0 -5.33332,-2.389329 -5.33332,-5.333323 0,-2.943994 2.38933,-5.333323 5.33332,-5.333323 h 27.58395 z"
   fill="#ffffff"
   id="path10476"
   style="stroke-width:10.6666" /><path
   d="M 373.33736,469.33509 H 64.004625 c -5.877322,0 -10.666646,-4.78932 -10.666646,-10.66664 v -15.99997 c 0,-2.944 2.389329,-5.33333 5.333323,-5.33333 2.943994,0 5.333323,2.38933 5.333323,5.33333 v 15.99997 H 373.33736 V 53.335897 h -26.66662 c -2.95466,0 -5.33332,-2.389329 -5.33332,-5.333323 0,-2.943994 2.37866,-5.333323 5.33332,-5.333323 h 26.66662 c 5.87732,0 10.66664,4.789324 10.66664,10.666646 V 458.66845 c 0,5.87732 -4.78932,10.66664 -10.66664,10.66664 z"
   fill="#0277bd"
   id="path10478"
   style="stroke-width:10.6666" /><path
   d="M 320.00413,421.33518 H 10.671395 c -2.9439943,0 -5.333323,-2.38932 -5.333323,-5.33332 V 90.669158 L 90.67124,5.33599 h 229.33289 c 2.94399,0 5.33332,2.3893287 5.33332,5.333323 V 416.00186 c 0,2.944 -2.38933,5.33332 -5.33332,5.33332 z"
   fill="#e1f5fe"
   id="path10480"
   style="stroke-width:10.6666" /><path
   d="M 320.00413,416.00186 H 10.671395 V 92.877154 L 92.879236,10.669313 H 320.00413 Z M 21.338041,405.33521 H 309.33748 V 21.335959 H 97.295227 L 21.338041,97.293145 Z"
   fill="#ffffff"
   id="path10482"
   style="stroke-width:10.6666" /><path
   d="M 320.00413,426.66851 H 10.671395 c -5.8773219,0 -10.666646,-4.78933 -10.666646,-10.66665 V 88.461162 L 88.452578,0.002667 H 320.00413 c 5.87732,0 10.66665,4.7893241 10.66665,10.666646 V 416.00186 c 0,5.87732 -4.78933,10.66665 -10.66665,10.66665 z m 0,-10.66665 v 5.33332 z M 10.671395,92.877154 V 416.00186 H 320.00413 V 10.669313 H 92.879236 Z"
   fill="#0277bd"
   id="path10484"
   style="stroke-width:10.6666" /><path
   d="M 85.337917,90.669158 H 5.338072 L 90.67124,5.33599 v 79.999845 c 0,2.943994 -2.389329,5.333323 -5.333323,5.333323 z"
   fill="#ffe57f"
   id="path10486"
   style="stroke-width:10.6666" /><path
   d="m 36.548678,79.874512 c -1.36533,0 -2.730661,-0.522665 -3.775992,-1.55733 -2.079996,-2.079996 -2.079996,-5.461323 0,-7.541319 L 70.884612,32.663937 c 2.079996,-2.079996 5.461322,-2.079996 7.541318,0 2.079996,2.079996 2.079996,5.461323 0,7.541319 L 40.314004,78.317182 c -1.034664,1.034665 -2.399995,1.55733 -3.765326,1.55733 z"
   fill="#ffffff"
   id="path10488"
   style="stroke-width:10.6666" /><path
   d="M 85.337917,96.002481 H 5.338072 c -2.1546625,0 -4.1066587,-1.301331 -4.92799045,-3.295994 C -0.42191684,90.711825 0.03674894,88.418496 1.5620793,86.893165 L 86.895247,1.5599973 c 2.079996,-2.07999595 5.461323,-2.07999595 7.541319,0 2.079996,2.079996 2.079996,5.4613228 0,7.5413187 L 18.212714,85.335835 H 85.337917 V 37.335928 c 0,-2.943994 2.389329,-5.333323 5.333323,-5.333323 2.943994,0 5.333323,2.389329 5.333323,5.333323 v 47.999907 c 0,5.877322 -4.789324,10.666646 -10.666646,10.666646 z"
   fill="#0277bd"
   id="path10490"
   style="stroke-width:10.6666" /><g
   id="layer1"><g
     id="g1817"
     style="fill:#0277bd;fill-opacity:1;stroke:#0277bd;stroke-opacity:1"
     transform="translate(-431.11899,-0.98041)"><path
       style="fill:#0277bd;fill-opacity:1;stroke:#0277bd;stroke-width:10.24;stroke-linecap:butt;stroke-linejoin:miter;stroke-miterlimit:4;stroke-dasharray:none;stroke-opacity:1"
       d="m 479.14914,218.13669 h 66.36861"
       id="path1167" /><path
       style="fill:#0277bd;fill-opacity:1;stroke:#0277bd;stroke-width:10.24;stroke-linecap:butt;stroke-linejoin:miter;stroke-miterlimit:4;stroke-dasharray:none;stroke-opacity:1"
       d="m 559.87903,218.13669 h 66.36861"
       id="path1167-3" /><path
       style="fill:#0277bd;fill-opacity:1;stroke:#0277bd;stroke-width:10.24;stroke-linecap:butt;stroke-linejoin:miter;stroke-miterlimit:4;stroke-dasharray:none;stroke-opacity:1"
       d="m 645.08013,270.71788 h 66.36861"
       id="path1167-3-2" /><path
       style="fill:#0277bd;fill-opacity:1;stroke:#0277bd;stroke-width:10.24;stroke-linecap:butt;stroke-linejoin:miter;stroke-miterlimit:4;stroke-dasharray:none;stroke-opacity:1"
       d="m 576.32174,270.71788 h 45.10209"
       id="path1167-3-2-9" /><path
       style="fill:#0277bd;fill-opacity:1;stroke:#0277bd;stroke-width:10.24;stroke-linecap:butt;stroke-linejoin:miter;stroke-miterlimit:4;stroke-dasharray:none;stroke-opacity:1"
       d="m 520.45555,270.71788 h 37.14991"
       id="path1167-3-2-9-1" /><path
       style="fill:#0277bd;fill-opacity:1;stroke:#0277bd;stroke-width:10.24;stroke-linecap:butt;stroke-linejoin:miter;stroke-miterlimit:4;stroke-dasharray:none;stroke-opacity:1"
       d="M 560.50929,171.64941 H 626.8779"
       id="path1167-3-3" /><path
       style="fill:#0277bd;fill-opacity:1;stroke:#0277bd;stroke-width:10.24;stroke-linecap:butt;stroke-linejoin:miter;stroke-miterlimit:4;stroke-dasharray:none;stroke-opacity:1"
       d="M 663.94016,218.13669 H 690.6578"
       id="path1167-3-6" /><path
       style="fill:#0277bd;fill-opacity:1;stroke:#0277bd;stroke-width:10.24;stroke-linecap:butt;stroke-linejoin:miter;stroke-miterlimit:4;stroke-dasharray:none;stroke-opacity:1"
       d="m 517.61874,171.64941 h 26.71764"
       id="path1167-3-6-5" /><path
       style="fill:#0277bd;fill-opacity:1;stroke:#0277bd;stroke-width:10.24;stroke-linecap:butt;stroke-linejoin:miter;stroke-miterlimit:4;stroke-dasharray:none;stroke-opacity:1"
       d="m 500.56298,270.71788 h 13.70274"
       id="path1167-3-6-5-2" /><path
       style="fill:#0277bd;fill-opacity:1;stroke:#0277bd;stroke-width:10.24;stroke-linecap:butt;stroke-linejoin:miter;stroke-miterlimit:4;stroke-dasharray:none;stroke-opacity:1"
       d="m 477.12974,171.64941 h 26.71764"
       id="path1167-3-6-5-6" /><path
       style="fill:#0277bd;fill-opacity:1;stroke:#0277bd;stroke-width:10.24;stroke-linecap:butt;stroke-linejoin:miter;stroke-miterlimit:4;stroke-dasharray:none;stroke-opacity:1"
       d="m 666.89691,171.64941 h 25.55966"
       id="path1167-3-6-7" /><path
       style="fill:#0277bd;fill-opacity:1;stroke:#0277bd;stroke-width:10.24;stroke-linecap:butt;stroke-linejoin:miter;stroke-miterlimit:4;stroke-dasharray:none;stroke-opacity:1"
       d="m 639.21279,171.64941 h 25.55966"
       id="path1167-3-6-7-5" /></g></g><g
   id="g11578"
   transform="matrix(1.4800301,0,0,1.4800301,718.06442,-332.14095)"
   style="display:inline"><path
     style="fill:#3f51b5;stroke-width:1.2288"
     d="m -339.84564,445.34442 h 39.32152 v 58.98228 l -19.66076,-19.66076 -19.66076,19.66076 z"
     id="path11289" /><circle
     style="fill:#a8965d;stroke-width:1.2288"
     cx="-320.18488"
     cy="420.76846"
     r="34.406334"
     id="circle11291" /></g></svg>
